<?xml version="1.0" encoding="utf-8"?>
<!-- Generator: Adobe Illustrator 24.0.2, SVG Export Plug-In . SVG Version: 6.00 Build 0)  -->
<svg version="1.1" id="Capa_1" xmlns="http://www.w3.org/2000/svg" xmlns:xlink="http://www.w3.org/1999/xlink" x="0px" y="0px"
	 viewBox="0 0 588 630.7" style="enable-background:new 0 0 588 630.7;" xml:space="preserve">
<style type="text/css">
	.st0{fill:#E8989B;}
	.st1{fill:#15CD82;}
	.st2{fill:#090814;}
	.st3{fill:#CCCCCC;}
	.st4{fill:#D6D6E3;}
	.st5{fill:none;stroke:#D6D6E3;stroke-width:3;stroke-miterlimit:10;}
</style>
<path class="st0" d="M302.8,124.7l-23.5,21.2l-12.4-13.7l23.5-21.2c0.2-4.7,2.4-9.7,6.6-13.5c7.3-6.6,17.7-7.1,23.2-1s4,16.3-3.3,23
	C312.7,123.2,307.5,125,302.8,124.7L302.8,124.7L302.8,124.7z"/>
<polyline class="st1" points="201.4,178.2 282.3,108.6 303.3,132.9 210.9,223.4 "/>
<polygon class="st0" points="179.5,218.8 167.8,265.2 248.8,264.2 239.5,221.8 "/>
<polygon class="st0" points="164.5,377.2 146.9,454.2 114.6,608.2 129.6,611.2 232.7,381.6 "/>
<polygon class="st0" points="198.4,394.7 230.9,466.7 278.6,611.2 298.6,606.2 255.3,357.1 "/>
<path class="st2" d="M172.3,246.1c0,0-36.2,63.7-29.6,134c0,0,53.3,40.4,139,3l-35.3-140.7L172.3,246.1L172.3,246.1L172.3,246.1z"/>
<path class="st2" d="M112.1,626.6c-1.7-1.4-2.7-3-2.8-4.7c-0.1-1.9,0.8-4,2.9-6.2c0-0.6,0.7-8.3,2.1-9.7c-0.1-0.4-0.8-3.2,0.3-4.9
	c0.5-0.8,1.4-1.3,2.6-1.5l0.1,0l0,0c0,0.1,3.4,6,8.5,6.6c2.9,0.3,5.9-1.2,8.7-4.5c0.1-0.2,0.9-4.3,1.4-6.9l0-0.1l27.8,14.8l16.3,4.6
	c2,0.6,3.5,2.5,3.5,4.6c0,1.8-1.1,3.5-2.7,4.3l-7.9,3.8c-3.3,1.6-7,2.5-10.6,2.5h-42.8C116.8,629.2,114.1,628.3,112.1,626.6
	C112.1,626.6,112.1,626.6,112.1,626.6z"/>
<path class="st2" d="M271.1,626.6c-1.7-1.4-2.7-3-2.8-4.7c-0.1-1.9,0.8-4,2.9-6.2c0-0.6,0.7-8.3,2.1-9.7c-0.1-0.4-0.8-3.2,0.3-4.9
	c0.5-0.8,1.4-1.3,2.6-1.5l0.1,0l0,0c0,0.1,3.4,6,8.5,6.6c2.9,0.3,5.9-1.2,8.7-4.5c0.1-0.2,0.9-4.3,1.4-6.9l0-0.1l27.8,14.8l16.3,4.6
	c2,0.6,3.5,2.5,3.5,4.6c0,1.8-1.1,3.5-2.7,4.3l-7.9,3.8c-3.3,1.6-7,2.5-10.6,2.5h-42.8C275.8,629.2,273.1,628.3,271.1,626.6
	L271.1,626.6z"/>
<path class="st0" d="M191.1,75c0-18,14.6-32.7,32.7-32.7S256.5,57,256.5,75c0,14.6-9.6,27-22.9,31.2l-6.3,41.7l-32.2-26.8
	c0,0,7-8.9,10.7-18.8C196.9,96.4,191.1,86.4,191.1,75z"/>
<path class="st1" d="M192,107.3l38.5,24.6l17.8,31.4c5.1,9.1,6.9,19.7,4.9,29.9l-8.2,42.2h-85.1l13.4-88.1
	c1.7-11.2,6-21.9,12.5-31.3L192,107.3L192,107.3z"/>
<path class="st2" d="M180.6,117.9c0,0,1.5,11.6,15.7,12c19.1,0.5,28.7,0.8,28.7,0.8c0,0-24.2-59-14.3-52.3
	c10,6.6,36.5-21.2,36.5-21.2l7.8,14.7c0,0,18.7-6.8-2-23.4c0,0-24.8-19.2-51.1-7.7S180.6,117.9,180.6,117.9
	C180.6,117.9,180.6,117.9,180.6,117.9z"/>
<path class="st0" d="M198.6,327.5l-0.7-31.7l18.5-0.4l0.7,31.7c3.4,3.2,5.7,8.2,5.8,13.8c0.2,9.9-6.2,18-14.4,18.2
	c-8.2,0.2-15-7.7-15.2-17.5C193.2,335.9,195.3,330.9,198.6,327.5z"/>
<polyline class="st1" points="224.1,169.1 224.1,322.5 192,322.5 182.5,170.4 "/>
<path class="st3" d="M413.6,629.5c0,0.7-0.5,1.2-1.2,1.2H1.2c-0.7,0-1.2-0.5-1.2-1.2s0.5-1.2,1.2-1.2h411.2
	C413.1,628.4,413.6,628.9,413.6,629.5z"/>
<ellipse transform="matrix(0.7254 -0.6884 0.6884 0.7254 8.8378 348.2558)" class="st4" cx="440.9" cy="163.1" rx="134" ry="107.2"/>
<path class="st5" d="M318.7,295.3C262.4,236,276.9,131,351,60.7s179.7-79.3,236-20"/>
<path class="st2" d="M492.7,117.7H378.6c-11,0-20,8.9-20,20v50.1c0,11,8.9,20,20,20h19.4l2.5,16.8c0.5,3,3.9,4.6,6.5,2.9l30.6-19.7
	h55c11,0,20-8.9,20-20v-50.1C512.7,126.7,503.8,117.7,492.7,117.7z"/>
<ellipse transform="matrix(0.1602 -0.9871 0.9871 0.1602 314.792 599.4646)" class="st1" cx="509.7" cy="114.7" rx="26" ry="26"/>
</svg>
